<svg width="20" height="20" viewBox="0 0 20 20" fill="none" xmlns="http://www.w3.org/2000/svg">
<path d="M4 13.0001C3.17 13.0001 2.42 13.3401 1.88 13.8801C0.7 15.0601 0 20.0001 0 20.0001C0 20.0001 4.94 19.3001 6.12 18.1201C6.66 17.5801 7 16.8301 7 16.0001C7 14.3401 5.66 13.0001 4 13.0001ZM4.71 16.7101C4.43 16.9901 2.54 17.4701 2.54 17.4701C2.54 17.4701 3.01 15.5901 3.3 15.3001C3.47 15.1101 3.72 15.0001 4 15.0001C4.55 15.0001 5 15.4501 5 16.0001C5 16.2801 4.89 16.5301 4.71 16.7101ZM15.42 11.6501C21.78 5.29005 19.66 0.340055 19.66 0.340055C19.66 0.340055 14.71 -1.77995 8.35 4.58005L5.86 4.08005C5.21 3.95005 4.53 4.16005 4.05 4.63005L0 8.69005L5 10.8301L9.17 15.0001L11.31 20.0001L15.36 15.9501C15.83 15.4801 16.04 14.8001 15.91 14.1401L15.42 11.6501ZM5.41 8.83005L3.5 8.01005L5.47 6.04005L6.91 6.33005C6.34 7.16005 5.83 8.03005 5.41 8.83005ZM11.99 16.5001L11.17 14.5901C11.97 14.1701 12.84 13.6601 13.66 13.0901L13.95 14.5301L11.99 16.5001ZM14 10.2401C12.68 11.5601 10.62 12.6401 9.96 12.9701L7.03 10.0401C7.35 9.39005 8.43 7.33005 9.76 6.00005C14.44 1.32006 17.99 2.01005 17.99 2.01005C17.99 2.01005 18.68 5.56005 14 10.2401ZM13 9.00005C14.1 9.00005 15 8.10005 15 7.00005C15 5.90005 14.1 5.00005 13 5.00005C11.9 5.00005 11 5.90005 11 7.00005C11 8.10005 11.9 9.00005 13 9.00005Z" fill="#212430"/>
</svg>
