<svg width="24" height="24" viewBox="0 0 24 24" fill="none" xmlns="http://www.w3.org/2000/svg">
<path d="M9.18999 6.35C7.14999 8.64 5.74999 11.93 5.61999 12.24L3.35999 11.27C2.70999 10.99 2.54999 10.14 3.04999 9.64L6.05999 6.63C6.52999 6.16 7.20999 5.95 7.86999 6.08L9.18999 6.35ZM10.68 16.51C10.98 16.81 11.42 16.89 11.8 16.71C12.96 16.17 15.45 14.9 17.06 13.29C21.65 8.7 21.69 4.96 21.42 3.36C21.35 2.96 21.03 2.64 20.63 2.57C19.03 2.3 15.29 2.34 10.7 6.93C9.08999 8.54 7.82999 11.03 7.27999 12.19C7.09999 12.57 7.18999 13.02 7.47999 13.31L10.68 16.51ZM17.65 14.81C15.36 16.85 12.07 18.25 11.76 18.38L12.73 20.64C13.01 21.29 13.86 21.45 14.36 20.95L17.37 17.94C17.84 17.47 18.05 16.79 17.92 16.13L17.65 14.81ZM8.93999 17.41C9.13999 18.47 8.78999 19.45 8.11999 20.12C7.34999 20.89 4.95999 21.46 3.40999 21.76C2.71999 21.89 2.10999 21.28 2.23999 20.59C2.53999 19.04 3.09999 16.65 3.87999 15.88C4.54999 15.21 5.52999 14.86 6.58999 15.06C7.75999 15.28 8.71999 16.24 8.93999 17.41ZM13 9C13 7.9 13.9 7 15 7C16.1 7 17 7.9 17 9C17 10.1 16.1 11 15 11C13.9 11 13 10.1 13 9Z" fill="#3D52D5"/>
</svg>
